<svg aria-hidden="true" style="position: absolute; width: 0; height: 0; overflow: hidden;" version="1.1" xmlns="http://www.w3.org/2000/svg" xmlns:xlink="http://www.w3.org/1999/xlink">
<defs>
<symbol id="icon-btn" viewBox="0 0 32 32">
<path d="M25.514 13.405c0 5.254-4.259 9.513-9.514 9.513s-9.514-4.259-9.514-9.514c0-5.254 4.259-9.514 9.514-9.514s9.514 4.259 9.514 9.514z"></path>
<path stroke-linejoin="miter" stroke-linecap="butt" stroke-miterlimit="4" stroke-width="0.8649" d="M11.676 13.405h8.649"></path>
</symbol>
<symbol id="icon--btn" viewBox="0 0 32 32">
<path d="M25.514 13.405c0 5.254-4.259 9.513-9.514 9.513s-9.514-4.259-9.514-9.514c0-5.254 4.259-9.514 9.514-9.514s9.514 4.259 9.514 9.514z"></path>
<path stroke-linejoin="miter" stroke-linecap="butt" stroke-miterlimit="4" stroke-width="0.8649" d="M16 9.081v8.649"></path>
<path stroke-linejoin="miter" stroke-linecap="butt" stroke-miterlimit="4" stroke-width="0.8649" d="M11.676 13.405h8.649"></path>
</symbol>
<symbol id="icon-edit-02" viewBox="0 0 32 32">
<path stroke-linejoin="round" stroke-linecap="round" stroke-miterlimit="4" stroke-width="2.7429" d="M24 13.334l-5.333-5.333M3.333 28.667l4.513-0.502c0.551-0.061 0.827-0.092 1.085-0.175 0.229-0.074 0.446-0.178 0.647-0.311 0.226-0.149 0.422-0.345 0.814-0.737l17.608-17.608c1.473-1.473 1.473-3.861 0-5.333s-3.861-1.473-5.333 0l-17.608 17.608c-0.392 0.392-0.588 0.588-0.737 0.814-0.132 0.201-0.237 0.418-0.311 0.647-0.083 0.258-0.114 0.533-0.175 1.085l-0.501 4.513z"></path>
</symbol>
<symbol id="icon-Ellipse-1" viewBox="0 0 49 32">
<path d="M42.271 35.955c-7.608 12.942-23.206 15.886-36.912 12.405-15.794-4.787-22.254-21.542-17.744-36.422 4.184-13.804 20.616-10.021 34.225-11.592 25.199-2.705 34.993 12.723 20.432 35.609z"></path>
</symbol>
<symbol id="icon-Ellipse-2" viewBox="0 0 31 32">
<path d="M46.129 22.271c-7.358 10.303-20.68 11.612-31.934 7.663-12.91-5.201-17.085-19.758-12.185-31.92 4.546-11.283 18.067-6.878 29.615-7.181 21.37-0.39 28.445 13.301 14.503 31.439z"></path>
</symbol>
<symbol id="icon-Ellipse-3-1" viewBox="0 0 32 32">
<path d="M25.514 13.405c0 5.254-4.259 9.513-9.514 9.513s-9.514-4.259-9.514-9.514c0-5.254 4.259-9.514 9.514-9.514s9.514 4.259 9.514 9.514z"></path>
</symbol>
<symbol id="icon-Ellipse-3" viewBox="0 0 32 32">
<path d="M25.863 13.589c0 5.326-4.318 9.644-9.644 9.644s-9.644-4.318-9.644-9.644c0-5.326 4.318-9.644 9.644-9.644s9.644 4.318 9.644 9.644z"></path>
</symbol>
<symbol id="icon-Exclude-1" viewBox="0 0 32 32">
<path d="M5.053 0h21.895c2.79 0 5.053 2.262 5.053 5.053v21.895c0 2.79-2.262 5.053-5.053 5.053h-21.895c-2.791 0-5.053-2.262-5.053-5.053v-21.895c0-2.791 2.262-5.053 5.053-5.053zM24.842 13.941c1.081 0 1.965-0.926 1.965-2.058s-0.884-2.059-1.965-2.059c-1.081 0-1.965 0.926-1.965 2.059 0 0.185 0.020 0.36 0.069 0.525l-3.488 3.664c-0.157-0.051-0.334-0.072-0.511-0.072s-0.354 0.021-0.511 0.072l-2.505-2.624c0.049-0.165 0.069-0.35 0.069-0.535 0-1.132-0.884-2.058-1.965-2.058s-1.965 0.926-1.965 2.058c0 0.185 0.020 0.371 0.069 0.535l-4.48 4.683c-0.157-0.051-0.324-0.072-0.501-0.072-1.081 0-1.965 0.926-1.965 2.059s0.884 2.058 1.965 2.058 1.965-0.926 1.965-2.058c0-0.185-0.020-0.36-0.069-0.525l4.47-4.693c0.157 0.051 0.334 0.072 0.511 0.072s0.354-0.021 0.511-0.072l2.505 2.625c-0.049 0.165-0.069 0.35-0.069 0.535 0 1.132 0.884 2.059 1.965 2.059s1.965-0.926 1.965-2.059c0-0.185-0.020-0.371-0.069-0.535l3.498-3.654c0.157 0.051 0.324 0.072 0.501 0.072z"></path>
</symbol>
<symbol id="icon-Exclude-2" viewBox="0 0 32 32">
<path d="M5.053 0c-2.791 0-5.053 2.262-5.053 5.053v21.895c0 2.79 2.262 5.053 5.053 5.053h21.895c2.79 0 5.053-2.262 5.053-5.053v-21.895c0-2.791-2.262-5.053-5.053-5.053h-21.895zM13.265 13.136c0 0.995 0.765 1.635 3.144 2.253s4.925 1.635 4.925 4.61c0 2.148-1.624 3.332-3.667 3.72v2.253h-3.143v-2.274c-2.012-0.43-3.73-1.718-3.856-4.013h2.305c0.115 1.236 0.964 2.2 3.123 2.2 2.316 0 2.829-1.153 2.829-1.876 0-0.974-0.524-1.896-3.143-2.525-2.923-0.702-4.925-1.907-4.925-4.327 0-2.022 1.635-3.342 3.667-3.783v-2.263h3.143v2.295c2.19 0.534 3.29 2.19 3.363 3.992h-2.316c-0.063-1.31-0.754-2.2-2.619-2.2-1.771 0-2.829 0.796-2.829 1.938z"></path>
</symbol>
<symbol id="icon-Exclude" viewBox="0 0 32 32">
<path d="M5.053 0c-2.791 0-5.053 2.262-5.053 5.053v21.895c0 2.79 2.262 5.053 5.053 5.053h21.895c2.79 0 5.053-2.262 5.053-5.053v-21.895c0-2.791-2.262-5.053-5.053-5.053h-21.895zM13.418 17.987v6.902h-5.754v-9.203h-3.453l11.509-10.353 11.509 10.353h-3.453v9.203h-5.754v-6.902h-4.604z"></path>
</symbol>
<symbol id="icon-Group-7" viewBox="0 0 32 32">
<path d="M20.051 23.237h2.499v4.997c0 2.067-1.681 3.748-3.748 3.748h-15.054c-2.066 0-3.748-1.681-3.748-3.748v-24.486c0-2.066 1.681-3.748 3.748-3.748h15.054c2.067 0 3.748 1.681 3.748 3.748v4.997h-2.499v-4.997c0-0.689-0.56-1.249-1.249-1.249h-15.054c-0.689 0-1.249 0.561-1.249 1.249v24.486c0 0.689 0.561 1.249 1.249 1.249h15.054c0.689 0 1.249-0.561 1.249-1.249v-4.997zM26.111 10.102l-1.767 1.767 2.873 2.874h-16.161v2.499h16.161l-2.873 2.873 1.767 1.767 5.889-5.889-5.889-5.89z"></path>
</symbol>
<symbol id="icon-Group" viewBox="0 0 32 32">
<path d="M3.755 7.619l16.211-4.537-0.858-1.779c-0.562-1.157-1.932-1.634-3.060-1.058l-14.513 7.375h2.219z"></path>
<path d="M24.813 3.048c-0.195 0-0.391 0.029-0.586 0.087l-15.012 4.484h18.431l-0.693-2.779c-0.266-1.083-1.163-1.793-2.14-1.793z"></path>
<path d="M28.36 8.573h-26.559c-0.568 0-1.074 0.26-1.405 0.67-0.151 0.189-0.266 0.406-0.331 0.645-0.040 0.15-0.065 0.307-0.065 0.467v19.862c0 0.984 0.805 1.783 1.797 1.783h26.559c0.992 0 1.797-0.799 1.797-1.783v-4.973h-10.662c-1.685 0-3.055-1.358-3.055-3.030v-3.965c0-0.82 0.331-1.565 0.866-2.111 0.474-0.485 1.11-0.813 1.822-0.895 0.119-0.014 0.241-0.021 0.363-0.021h10.665v-4.867c0.004-0.984-0.801-1.783-1.793-1.783z"></path>
<path d="M31.414 16.926c-0.18-0.164-0.392-0.289-0.629-0.371-0.183-0.061-0.377-0.096-0.582-0.096h-10.712c-0.992 0-1.797 0.799-1.797 1.783v3.968c0 0.984 0.805 1.783 1.797 1.783h10.712c0.205 0 0.399-0.036 0.582-0.096 0.237-0.078 0.449-0.207 0.629-0.371 0.359-0.324 0.586-0.795 0.586-1.316v-3.968c0-0.521-0.226-0.991-0.586-1.316zM23.243 20.581c0 0.492-0.402 0.891-0.898 0.891h-0.596c-0.496 0-0.898-0.399-0.898-0.891v-0.592c0-0.285 0.133-0.538 0.345-0.699 0.154-0.118 0.345-0.192 0.553-0.192h0.596c0.496 0 0.898 0.399 0.898 0.891v0.592z"></path>
</symbol>
<symbol id="icon-Vector-1" viewBox="0 0 26 32">
<path d="M22.095 10.667h-1.524v-3.048c0-4.206-3.413-7.619-7.619-7.619s-7.619 3.413-7.619 7.619v3.048h-1.524c-1.676 0-3.048 1.371-3.048 3.048v15.238c0 1.676 1.371 3.048 3.048 3.048h18.286c1.676 0 3.048-1.371 3.048-3.048v-15.238c0-1.676-1.371-3.048-3.048-3.048zM12.952 24.381c-1.676 0-3.048-1.371-3.048-3.048s1.371-3.048 3.048-3.048c1.676 0 3.048 1.371 3.048 3.048s-1.371 3.048-3.048 3.048zM17.676 10.667h-9.448v-3.048c0-2.606 2.118-4.724 4.724-4.724s4.724 2.118 4.724 4.724v3.048z"></path>
</symbol>
<symbol id="icon-Vector-2" viewBox="0 0 34 32">
<path d="M0.889 3.556v24.889c0 1.956 1.582 3.556 3.556 3.556h24.889c1.956 0 3.556-1.6 3.556-3.556v-24.889c0-1.956-1.6-3.556-3.556-3.556h-24.889c-1.973 0-3.556 1.6-3.556 3.556zM22.222 10.667c0 2.951-2.382 5.333-5.333 5.333s-5.333-2.382-5.333-5.333c0-2.951 2.382-5.333 5.333-5.333s5.333 2.382 5.333 5.333zM6.222 24.889c0-3.556 7.111-5.511 10.667-5.511s10.667 1.956 10.667 5.511v1.778h-21.333v-1.778z"></path>
</symbol>
<symbol id="icon-Vector-3" viewBox="0 0 29 32">
<path d="M9.6 14.4h-3.2v3.2h3.2v-3.2zM16 14.4h-3.2v3.2h3.2v-3.2zM22.4 14.4h-3.2v3.2h3.2v-3.2zM25.6 3.2h-1.6v-3.2h-3.2v3.2h-12.8v-3.2h-3.2v3.2h-1.6c-1.776 0-3.184 1.44-3.184 3.2l-0.016 22.4c0 1.76 1.424 3.2 3.2 3.2h22.4c1.76 0 3.2-1.44 3.2-3.2v-22.4c0-1.76-1.44-3.2-3.2-3.2zM25.6 28.8h-22.4v-17.6h22.4v17.6z"></path>
</symbol>
<symbol id="icon-Vector-21" viewBox="0 0 16 32">
<path stroke-linejoin="miter" stroke-linecap="butt" stroke-miterlimit="4" stroke-width="2.9091" d="M13.529 1.597l-11.058 28.806"></path>
</symbol>
<symbol id="icon-Vector" viewBox="0 0 42 32">
<path d="M37 0h-32c-2.2 0-3.98 1.8-3.98 4l-0.020 24c0 2.2 1.8 4 4 4h32c2.2 0 4-1.8 4-4v-24c0-2.2-1.8-4-4-4zM37 8l-16 10-16-10v-4l16 10 16-10v4z"></path>
</symbol>
</defs>
</svg>
